<?xml version="1.0"?><svg width="640" height="480" xmlns="http://www.w3.org/2000/svg" xmlns:xlink="http://www.w3.org/1999/xlink">
 <title>Treasure Chest</title>
 <metadata id="metadata7">image/svg+xml</metadata>
 <g>
  <title>Layer 1</title>
  <g id="layer1">
   <path fill="#ffffff" fill-rule="evenodd" stroke="#000000" stroke-width="2" stroke-miterlimit="4" id="path2406" d="m35.75061,39.809387l55.053299,160.109192l177.281815,-47.477173c-18.731766,-62.799744 -23.011917,-91.575684 -37.375687,-144.451813l-194.959442,31.819794l0.000015,0z"/>
   <path fill="#ffffff" fill-rule="evenodd" stroke="#000000" stroke-width="2" stroke-miterlimit="4" id="path2408" d="m229.903458,9.497284c0,0 -33.335052,26.769043 -29.294434,67.17514c4.040619,40.406097 65.154831,73.236053 65.154831,73.236053l-35.860397,-140.411194z"/>
   <path fill="#ffffff" fill-rule="evenodd" stroke="#000000" stroke-width="2" id="path2798" d="m34.438919,39.700836l194.454376,-32.526917l-16.970581,20.506104l-198.696991,38.890869l21.213196,-26.870056z"/>
   <path fill="#ffffff" fill-rule="evenodd" stroke="#000000" stroke-width="2" id="path2802" d="m210.50853,29.094238l-9.149506,23.670319l-195.911469,41.262177l7.778183,-27.791626l197.282791,-37.140869z"/>
   <path fill="#ffffff" fill-rule="evenodd" stroke="#000000" stroke-width="2" id="path2804" d="m202.023239,52.428741l-195.868576,42.426392l-1.414215,23.334534l193.790146,-40.176392l3.492645,-25.584534z"/>
   <path fill="#ffffff" fill-rule="evenodd" stroke="#000000" stroke-width="2" id="path2806" d="m199.194809,77.17749l8.485291,22.627411l-194.454376,43.840637l-7.778183,-24.748749l193.747269,-41.719299z"/>
   <path fill="#ffffff" fill-rule="evenodd" stroke="#000000" stroke-width="2" id="path2808" d="m208.387192,99.097809l16.263458,18.384766l-196.575699,47.37616l-14.849228,-20.506073l195.161469,-45.254852z"/>
   <path fill="#ffffff" fill-rule="evenodd" stroke="#000000" stroke-width="2" id="path2810" d="m222.529343,118.89679l16.970551,14.142151l-192.333054,48.790344l-18.384766,-17.677643l193.747269,-45.254852z"/>
   <path fill="#ffffff" fill-rule="evenodd" stroke="#000000" stroke-width="2" id="path2812" d="m237.378586,133.03894l25.455856,15.556335l-182.433563,47.37616l-31.112701,-14.14212l188.090408,-48.790375z"/>
   <path fill="#ffffff" fill-rule="evenodd" stroke="#000000" stroke-width="2" id="path2815" d="m272.020081,146.5l-4,4l-37.499985,-143.5l4.5,-6l36.999985,145.5z"/>
   <path fill="#ffffff" fill-rule="evenodd" stroke="#000000" stroke-width="2" id="path3603" d="m234.020096,0.5l-4,7l-196,31.5l1,-5.5l199,-33z"/>
   <path fill="#ffffff" fill-rule="evenodd" stroke="#000000" stroke-width="2" id="path3695" d="m16.761261,53.135864l48.436798,140.714264l24.395187,6.363953l-55.154327,-165.463013l-17.677658,18.384796z"/>
   <path fill="#ffffff" fill-rule="evenodd" stroke="#000000" stroke-width="2" id="path3697" d="m16.761261,53.842957l-7.071075,16.263458l36.062439,112.429993l18.531235,10.06369l-47.522598,-138.757141z"/>
   <path fill="#ffffff" fill-rule="evenodd" stroke="#000000" stroke-width="2" id="path3699" d="m9.690201,70.106415l-7.071075,36.769562l15.556351,45.254822l27.091034,30.228821l-35.576309,-112.253204z"/>
   <path fill="#ffffff" stroke="#000000" stroke-width="2" stroke-linecap="round" stroke-miterlimit="4" id="path3685" d="m10.514221,143.638c-7.105621,-14.154205 -9.972672,-25.795227 -10.013779,-40.65863c-0.050812,-18.347595 4.364288,-33.630646 15.740417,-50.638123c4.828079,-7.218048 17.920486,-19.860382 18.763458,-19.002869c0.57959,0.589569 55.22197,165.924377 55.22197,167.048676c0,0.957123 -8.006088,-1.674591 -14.583817,-3.529358c-28.365433,-7.549713 -48.942825,-27.194641 -65.12825,-53.219696zm60.280731,39.617706c0,-0.623688 -43.176331,-125.733215 -43.737823,-126.736542c-0.678909,-1.213135 -6.333267,10.473999 -9.268188,19.156647c-4.256271,12.591675 -5.899811,18.356445 -5.28833,30.131958c0.681747,13.128296 1.486343,16.441498 5.973694,27.223633c3.822311,9.184143 8.948242,15.019165 18.351776,24.423767c8.620178,8.621155 15.100159,13.994171 25.422699,21.079742c6.763428,4.642548 8.546173,5.627319 8.546173,4.720795z"/>
   <g stroke="#130b00" id="g3741">
    <path fill="#ffffff" fill-rule="evenodd" stroke="#000000" stroke-width="2" d="m218.772354,20.420595l28.680939,118.124846l17.540878,10.335709l-34.752289,-138.214832l-11.469528,9.754278z" id="path3743"/>
    <path fill="#ffffff" fill-rule="evenodd" stroke="#000000" stroke-width="2" d="m217.655304,20.330318l-9.218597,16.682236l21.557587,90.35696l17.413864,11.734444l-29.752869,-118.77364l0.000015,0z" id="path3745"/>
    <path fill="#ffffff" fill-rule="evenodd" stroke="#000000" stroke-width="2" d="m207.697647,39.201481l-7.193344,26.40279l9.398621,36.738411l19.987717,25.040222l-22.192993,-88.181423z" id="path3747"/>
   </g>
   <path fill="#ffffff" fill-rule="evenodd" stroke="#000000" stroke-width="2" id="path3613" d="m35.020096,33.5l5,-1l56,165.5l-5.720963,1.765167l-55.279037,-166.265167z"/>
   <path fill="#ffffff" fill-rule="evenodd" stroke="#000000" stroke-width="2" stroke-miterlimit="4" id="path2402" d="m266.773987,150.91864l12.121857,111.11676l97.984772,19.192932l14.647217,-113.642181l-124.753845,-16.667511z"/>
   <path fill="#ffffff" fill-rule="evenodd" stroke="#000000" stroke-width="2" stroke-miterlimit="4" id="path2404" d="m91.449402,199.102905l18.750961,115.460449l169.705643,-53.538086l-11.111664,-109.601563l-177.34494,47.679199z"/>
   <image stroke-width="2" fill="#ffffff" stroke="#000000" y="366.782462" x="143.320851" id="image3285" height="30" width="19.333334" transform="matrix(0.9800265,-0.1988668,0.1988668,0.9800265,0,0) " xlink:href="pastedpic_08082009_151314.png"/>
   <g id="g3494">
    <path fill="#ffffff" stroke="#000000" stroke-width="2" stroke-miterlimit="4" id="path3301" d="m227.681427,178.589417c0,5.857849 -7.236206,10.606598 -16.162476,10.606598c-8.92627,0 -16.162415,-4.748749 -16.162415,-10.606598c0,-5.85788 7.236145,-10.606598 16.162415,-10.606598c8.92627,0 16.162476,4.748718 16.162476,10.606598z"/>
    <path fill="#ffffff" stroke="#000000" stroke-width="2" stroke-miterlimit="4" id="path3291" d="m227.428894,175.55896c0,5.857849 -7.236191,10.606598 -16.16246,10.606598c-8.926285,0 -16.16243,-4.748749 -16.16243,-10.606598c0,-5.85788 7.236145,-10.606598 16.16243,-10.606598c8.92627,0 16.16246,4.748718 16.16246,10.606598z"/>
   </g>
   <g id="g3486">
    <path fill="#ffffff" stroke="#000000" stroke-width="2" stroke-miterlimit="4" id="path3309" d="m270.393585,165.853775c0,-5.85791 7.236206,-10.606628 16.162476,-10.606628c8.92627,0 16.162415,4.748718 16.162415,10.606628c0,5.857849 -7.236145,10.606567 -16.162415,10.606567c-8.92627,0 -16.162476,-4.748718 -16.162476,-10.606567z"/>
    <path fill="#ffffff" stroke="#000000" stroke-width="2" stroke-miterlimit="4" id="path3311" d="m270.646088,168.884232c0,-5.85791 7.236206,-10.606628 16.162476,-10.606628c8.92627,0 16.162415,4.748718 16.162415,10.606628c0,5.857849 -7.236145,10.606567 -16.162415,10.606567c-8.92627,0 -16.162476,-4.748718 -16.162476,-10.606567z"/>
   </g>
   <g id="g3510">
    <path fill="#ffffff" stroke="#000000" stroke-width="2" stroke-miterlimit="4" id="path3315" d="m237.493607,210.098953c-4.287231,3.99173 -12.693756,1.931671 -18.776413,-4.601273c-6.082672,-6.532944 -7.538132,-15.064896 -3.2509,-19.056641c4.287277,-3.991776 12.693726,-1.931732 18.776398,4.601212c6.082672,6.532944 7.538193,15.064911 3.250916,19.056702z"/>
    <path fill="#ffffff" stroke="#000000" stroke-width="2" stroke-miterlimit="4" id="path3317" d="m239.539444,207.849075c-4.287231,3.991745 -12.693741,1.931686 -18.776413,-4.601273c-6.082672,-6.532944 -7.538132,-15.06488 -3.2509,-19.056625c4.287277,-3.991791 12.693726,-1.931747 18.776398,4.601196c6.082672,6.532944 7.538193,15.064911 3.250916,19.056702z"/>
   </g>
   <g id="g3522">
    <path fill="#ffffff" stroke="#000000" stroke-width="2" stroke-miterlimit="4" id="path3321" d="m218.723389,204.388885c0,5.857849 -7.236206,10.606598 -16.162476,10.606598c-8.92627,0 -16.162415,-4.748749 -16.162415,-10.606598c0,-5.85788 7.236145,-10.606598 16.162415,-10.606598c8.92627,0 16.162476,4.748718 16.162476,10.606598z"/>
    <path fill="#ffffff" stroke="#000000" stroke-width="2" stroke-miterlimit="4" id="path3323" d="m218.470856,201.358444c0,5.857849 -7.236206,10.606598 -16.162476,10.606598c-8.926254,0 -16.162415,-4.748749 -16.162415,-10.606598c0,-5.85788 7.23616,-10.606598 16.162415,-10.606598c8.92627,0 16.162476,4.748718 16.162476,10.606598z"/>
   </g>
   <g id="g3584">
    <path fill="#ffffff" stroke="#000000" stroke-width="2" stroke-miterlimit="4" id="path3327" d="m276.02182,211.021545c2.395203,5.345795 -2.266785,12.638214 -10.412781,16.288025c-8.145996,3.649796 -16.691284,2.274902 -19.086456,-3.070892c-2.395203,-5.345825 2.266739,-12.638184 10.41272,-16.287994c8.145996,-3.649796 16.691345,-2.274948 19.086517,3.070862z"/>
    <path fill="#ffffff" stroke="#000000" stroke-width="2" stroke-miterlimit="4" id="path3329" d="m274.552277,208.359253c2.395172,5.345795 -2.266785,12.638199 -10.412781,16.28801c-8.145996,3.649811 -16.691284,2.274902 -19.086472,-3.070892c-2.395187,-5.34581 2.266739,-12.638168 10.412735,-16.287979c8.145996,-3.649811 16.691345,-2.274963 19.086517,3.070862z"/>
   </g>
   <g id="g3576">
    <path fill="#ffffff" stroke="#000000" stroke-width="2" stroke-miterlimit="4" id="path3333" d="m281.518555,162.208557c5.399536,2.271423 6.970856,10.782837 3.509644,19.010727c-3.461212,8.227905 -10.644287,13.056549 -16.043823,10.785126c-5.399567,-2.271423 -6.970917,-10.782761 -3.509674,-19.010666c3.461212,-8.22789 10.644257,-13.05661 16.043854,-10.785187z"/>
    <path fill="#ffffff" stroke="#000000" stroke-width="2" stroke-miterlimit="4" id="path3335" d="m278.627258,161.266251c5.399567,2.271408 6.970886,10.782822 3.509674,19.010727c-3.461212,8.22789 -10.644287,13.056549 -16.043823,10.785126c-5.399567,-2.271423 -6.970917,-10.782776 -3.509705,-19.010666c3.461212,-8.227905 10.644287,-13.05661 16.043854,-10.785187z"/>
   </g>
   <g id="g3560">
    <path fill="#ffffff" stroke="#000000" stroke-width="2" stroke-miterlimit="4" id="path3339" d="m257.871277,202.940308c-3.893127,-4.376984 -1.642303,-12.734451 5.027374,-18.66687c6.669708,-5.932404 15.232574,-7.193283 19.125702,-2.816315c3.893158,4.376968 1.642334,12.73436 -5.027374,18.666779c-6.669678,5.932404 -15.232574,7.193375 -19.125702,2.816406z"/>
    <path fill="#ffffff" stroke="#000000" stroke-width="2" stroke-miterlimit="4" id="path3341" d="m260.073975,205.036804c-3.893127,-4.376968 -1.642303,-12.734436 5.027374,-18.666855c6.669708,-5.932419 15.232574,-7.193283 19.125702,-2.816315c3.893158,4.376968 1.642334,12.73436 -5.027374,18.666763c-6.669678,5.932419 -15.232544,7.19339 -19.125702,2.816406z"/>
   </g>
   <g id="g3568">
    <path fill="#ffffff" stroke="#000000" stroke-width="2" stroke-miterlimit="4" id="path3345" d="m270.151947,197.777283c0,5.857849 -7.236206,10.606598 -16.16246,10.606598c-8.92627,0 -16.162415,-4.748749 -16.162415,-10.606598c0,-5.85788 7.236145,-10.606598 16.162415,-10.606598c8.926254,0 16.16246,4.748718 16.16246,10.606598z"/>
    <path fill="#ffffff" stroke="#000000" stroke-width="2" stroke-miterlimit="4" id="path3347" d="m269.899445,194.746826c0,5.857849 -7.236206,10.606613 -16.162491,10.606613c-8.92627,0 -16.162415,-4.748764 -16.162415,-10.606613c0,-5.85788 7.236145,-10.606598 16.162415,-10.606598c8.926285,0 16.162491,4.748718 16.162491,10.606598z"/>
   </g>
   <g id="g3490">
    <path fill="#ffffff" stroke="#000000" stroke-width="2" stroke-miterlimit="4" id="path3414" d="m164.474701,206.842758c-4.915558,-3.186188 -4.964493,-11.841278 -0.109344,-19.33165c4.855148,-7.490387 12.775848,-10.979614 17.691391,-7.793427c4.915604,3.186218 4.964584,11.841248 0.109436,19.331635c-4.855148,7.490387 -12.775879,10.97966 -17.691483,7.793442z"/>
    <path fill="#ffffff" stroke="#000000" stroke-width="2" stroke-miterlimit="4" id="path3416" d="m167.154999,208.279175c-4.915543,-3.186188 -4.964493,-11.841278 -0.109344,-19.33165c4.855148,-7.490387 12.775848,-10.979614 17.691406,-7.793427c4.915588,3.186218 4.964569,11.841248 0.109421,19.331635c-4.855148,7.490387 -12.775879,10.97966 -17.691483,7.793442z"/>
   </g>
   <g id="g3498">
    <path fill="#ffffff" stroke="#000000" stroke-width="2" stroke-miterlimit="4" id="path3418" d="m158.526947,229.395966c-5.767075,1.027237 -11.711151,-5.264099 -13.276474,-14.052048c-1.565308,-8.787949 1.840881,-16.744705 7.607956,-17.771942c5.767151,-1.027252 11.711212,5.264023 13.276535,14.051971c1.565308,8.787949 -1.840881,16.744766 -7.608017,17.772018z"/>
    <path fill="#ffffff" stroke="#000000" stroke-width="2" stroke-miterlimit="4" id="path3420" d="m161.466156,228.615936c-5.767075,1.027237 -11.711166,-5.264099 -13.276474,-14.052048c-1.565323,-8.787949 1.840881,-16.744705 7.607956,-17.771942c5.767136,-1.027252 11.711197,5.264023 13.27652,14.051971c1.565323,8.787949 -1.840866,16.744766 -7.608002,17.772018z"/>
   </g>
   <g id="g3514">
    <path fill="#ffffff" stroke="#000000" stroke-width="2" stroke-miterlimit="4" id="path3422" d="m184.853333,199.131821c5.646606,1.558899 8.298401,9.797913 5.922928,18.402298c-2.375488,8.604385 -8.878693,14.315842 -14.525299,12.756943c-5.646637,-1.558914 -8.298416,-9.797852 -5.922943,-18.402237c2.375473,-8.604385 8.878677,-14.315918 14.525314,-12.757004z"/>
    <path fill="#ffffff" stroke="#000000" stroke-width="2" stroke-miterlimit="4" id="path3424" d="m181.86499,198.568771c5.646606,1.558899 8.298401,9.797913 5.922913,18.402283c-2.375473,8.604385 -8.878677,14.315842 -14.525284,12.756943c-5.646637,-1.558914 -8.298416,-9.797852 -5.922943,-18.402237c2.375473,-8.604385 8.878662,-14.315903 14.525314,-12.756989z"/>
   </g>
   <g id="g3505">
    <path fill="#ffffff" stroke="#000000" stroke-width="2" stroke-miterlimit="4" id="path3426" d="m161.144241,231.544128c-3.18309,-4.917557 0.311142,-12.836136 7.804581,-17.686569c7.493439,-4.850418 16.148483,-4.795944 19.331558,0.121613c3.18309,4.917557 -0.311127,12.836044 -7.804565,17.686478c-7.493439,4.850433 -16.148499,4.796036 -19.331573,-0.121521z"/>
    <g id="g3502">
     <path fill="#ffffff" stroke="#000000" stroke-width="2" stroke-miterlimit="4" d="m163.00293,233.950928c-3.183075,-4.917557 0.311157,-12.836151 7.804596,-17.686569c7.493439,-4.850433 16.148468,-4.795959 19.331558,0.121597c3.18309,4.917557 -0.311127,12.83606 -7.804565,17.686493c-7.493439,4.850418 -16.148499,4.796036 -19.331589,-0.121521z" id="path3428"/>
    </g>
   </g>
   <g id="g3552">
    <path fill="#ffffff" stroke="#000000" stroke-width="2" stroke-miterlimit="4" id="path3454" d="m249.179932,197.585327c5.270752,2.556091 6.386017,11.139191 2.491013,19.170822c-3.895004,8.031631 -11.325333,12.470413 -16.596069,9.914322c-5.270782,-2.556107 -6.386047,-11.13913 -2.491043,-19.170776c3.895004,-8.031631 11.325333,-12.470474 16.5961,-9.914368z"/>
    <path fill="#ffffff" stroke="#000000" stroke-width="2" stroke-miterlimit="4" id="path3456" d="m246.343048,196.490189c5.270737,2.556091 6.386002,11.139175 2.490997,19.170822c-3.895004,8.031631 -11.325317,12.470413 -16.596069,9.914322c-5.270782,-2.556107 -6.386047,-11.13913 -2.491043,-19.170776c3.895004,-8.031631 11.325333,-12.470474 16.596115,-9.914368z"/>
   </g>
   <g id="g3544">
    <path fill="#ffffff" stroke="#000000" stroke-width="2" stroke-miterlimit="4" id="path3458" d="m206.58699,133.956345c5.596512,-1.730148 12.27066,3.780655 14.907089,12.308701c2.636429,8.528046 0.236786,16.843933 -5.359741,18.574081c-5.596542,1.730164 -12.270645,-3.780594 -14.907074,-12.30864c-2.636429,-8.52803 -0.236816,-16.843979 5.359726,-18.574142z"/>
    <path fill="#ffffff" stroke="#000000" stroke-width="2" stroke-miterlimit="4" id="path3460" d="m203.766327,135.092651c5.596512,-1.730164 12.27066,3.780655 14.907089,12.308685c2.636429,8.528046 0.236786,16.843933 -5.359726,18.574097c-5.596542,1.730164 -12.27066,-3.780594 -14.907089,-12.30864c-2.636429,-8.528046 -0.236816,-16.843979 5.359726,-18.574142z"/>
   </g>
   <g id="g3535">
    <path fill="#ffffff" stroke="#000000" stroke-width="2" stroke-miterlimit="4" id="path3462" d="m243.524643,228.482666c3.764862,4.487778 1.273163,12.776611 -5.565384,18.513565c-6.838531,5.736954 -15.43428,6.749588 -19.199158,2.26181c-3.764893,-4.487808 -1.273209,-12.776566 5.565338,-18.513535c6.838531,-5.736954 15.434311,-6.749649 19.199203,-2.261841z"/>
    <g id="g3530">
     <path fill="#ffffff" stroke="#000000" stroke-width="2" stroke-miterlimit="4" d="m241.383484,226.323288c3.764877,4.487778 1.273163,12.776611 -5.565369,18.51358c-6.838531,5.736954 -15.434296,6.749573 -19.199158,2.261795c-3.764893,-4.487793 -1.273209,-12.776566 5.565323,-18.513519c6.838547,-5.736954 15.434326,-6.749649 19.199203,-2.261856z" id="path3464"/>
    </g>
   </g>
   <g id="g3616">
    <path fill="#ffffff" stroke="#000000" stroke-width="2" stroke-miterlimit="4" id="path3618" d="m285.397003,170.821671c0,-5.85788 7.236206,-10.606628 16.162476,-10.606628c8.92627,0 16.162415,4.748749 16.162415,10.606628c0,5.857849 -7.236145,10.606567 -16.162415,10.606567c-8.92627,0 -16.162476,-4.748718 -16.162476,-10.606567z"/>
    <path fill="#ffffff" stroke="#000000" stroke-width="2" stroke-miterlimit="4" id="path3620" d="m285.649506,173.852127c0,-5.85788 7.236206,-10.606628 16.162476,-10.606628c8.92627,0 16.162415,4.748749 16.162415,10.606628c0,5.857849 -7.236145,10.606567 -16.162415,10.606567c-8.92627,0 -16.162476,-4.748718 -16.162476,-10.606567z"/>
   </g>
   <g id="g3626">
    <path fill="#ffffff" stroke="#000000" stroke-width="2" stroke-miterlimit="4" id="path3628" d="m188.003281,201.080719c-4.915543,-3.186188 -4.964493,-11.841278 -0.109344,-19.331665c4.855148,-7.490372 12.775848,-10.979599 17.691406,-7.793411c4.915588,3.186203 4.964569,11.841248 0.109421,19.331635c-4.855148,7.490372 -12.775879,10.979645 -17.691483,7.793442z"/>
    <path fill="#ffffff" stroke="#000000" stroke-width="2" stroke-miterlimit="4" id="path3630" d="m190.683578,202.517136c-4.915543,-3.186188 -4.964493,-11.841278 -0.109344,-19.331665c4.855148,-7.490372 12.775848,-10.979599 17.691406,-7.793411c4.915604,3.186203 4.964569,11.841248 0.109421,19.331635c-4.855148,7.490372 -12.775879,10.979645 -17.691483,7.793442z"/>
   </g>
   <g id="g3636">
    <path fill="#ffffff" stroke="#000000" stroke-width="2" stroke-miterlimit="4" id="path3638" d="m186.589035,240.67868c-4.915543,-3.186188 -4.964493,-11.841278 -0.109344,-19.33165c4.855148,-7.490387 12.775848,-10.979614 17.691406,-7.793427c4.915588,3.186218 4.964569,11.841263 0.109421,19.331635c-4.855148,7.490387 -12.775879,10.97966 -17.691483,7.793442z"/>
    <path fill="#ffffff" stroke="#000000" stroke-width="2" stroke-miterlimit="4" id="path3640" d="m189.269333,242.115097c-4.915543,-3.186188 -4.964493,-11.841278 -0.109344,-19.33165c4.855148,-7.490387 12.775848,-10.979614 17.691406,-7.793427c4.915588,3.186218 4.964569,11.841263 0.109421,19.331635c-4.855148,7.490387 -12.775879,10.97966 -17.691483,7.793442z"/>
   </g>
   <g id="g3646">
    <path fill="#ffffff" stroke="#000000" stroke-width="2" stroke-miterlimit="4" id="path3648" d="m133.959915,194.854202c5.596512,-1.730164 12.27066,3.780655 14.907089,12.308701c2.636429,8.52803 0.236786,16.843933 -5.359741,18.574081c-5.596542,1.730164 -12.270645,-3.780594 -14.907074,-12.30864c-2.636429,-8.528046 -0.236816,-16.843979 5.359726,-18.574142z"/>
    <path fill="#ffffff" stroke="#000000" stroke-width="2" stroke-miterlimit="4" id="path3650" d="m131.139252,195.990494c5.596512,-1.730148 12.27066,3.780655 14.907089,12.308701c2.636429,8.528046 0.236786,16.843933 -5.359726,18.574081c-5.596542,1.730164 -12.270645,-3.780594 -14.907082,-12.308624c-2.636429,-8.528046 -0.236824,-16.843994 5.359718,-18.574158z"/>
   </g>
   <g id="g3656">
    <path fill="#ffffff" stroke="#000000" stroke-width="2" stroke-miterlimit="4" id="path3658" d="m277.109161,164.812592c5.596527,-1.730148 12.270691,3.780655 14.907104,12.308701c2.636444,8.52803 0.236786,16.843933 -5.359741,18.574081c-5.596527,1.730164 -12.27063,-3.780594 -14.907074,-12.30864c-2.636414,-8.528046 -0.236816,-16.843979 5.359711,-18.574142z"/>
    <path fill="#ffffff" stroke="#000000" stroke-width="2" stroke-miterlimit="4" id="path3660" d="m274.288513,165.948898c5.596527,-1.730164 12.27066,3.78064 14.907104,12.308685c2.636414,8.528046 0.236755,16.843933 -5.359741,18.574097c-5.596558,1.730148 -12.27066,-3.780594 -14.907074,-12.30864c-2.636444,-8.528046 -0.236847,-16.843994 5.359711,-18.574142z"/>
   </g>
   <g id="g3666">
    <path fill="#ffffff" stroke="#000000" stroke-width="2" stroke-miterlimit="4" id="path3668" d="m214.570068,200.511032c5.596512,-1.730148 12.270676,3.780655 14.907104,12.308701c2.636429,8.528046 0.236771,16.843933 -5.359741,18.574097c-5.596542,1.730148 -12.270645,-3.780609 -14.907074,-12.30864c-2.636429,-8.528046 -0.236832,-16.843994 5.359711,-18.574158z"/>
    <path fill="#ffffff" stroke="#000000" stroke-width="2" stroke-miterlimit="4" id="path3670" d="m211.749405,201.647339c5.596527,-1.730148 12.270676,3.780655 14.907104,12.308701c2.636429,8.52803 0.236771,16.843933 -5.359741,18.574081c-5.596542,1.730164 -12.270645,-3.780594 -14.907074,-12.30864c-2.636429,-8.528046 -0.236816,-16.843979 5.359711,-18.574142z"/>
   </g>
   <g id="g3676">
    <path fill="#ffffff" stroke="#000000" stroke-width="2" stroke-miterlimit="4" id="path3678" d="m206.344299,161.734924c0,5.857849 -7.236206,10.606598 -16.162476,10.606598c-8.92627,0 -16.162415,-4.748749 -16.162415,-10.606598c0,-5.85788 7.236145,-10.606598 16.162415,-10.606598c8.92627,0 16.162476,4.748718 16.162476,10.606598z"/>
    <path fill="#ffffff" stroke="#000000" stroke-width="2" stroke-miterlimit="4" id="path3680" d="m206.091782,158.704468c0,5.857849 -7.236206,10.606598 -16.162491,10.606598c-8.926254,0 -16.162415,-4.748749 -16.162415,-10.606598c0,-5.85788 7.23616,-10.606598 16.162415,-10.606598c8.926285,0 16.162491,4.748718 16.162491,10.606598z"/>
   </g>
   <g id="g3688">
    <path fill="#ffffff" stroke="#000000" stroke-width="2" stroke-miterlimit="4" id="path3690" d="m193.406448,232.494446c-4.287231,3.991745 -12.693741,1.931686 -18.776413,-4.601257c-6.082672,-6.532959 -7.538132,-15.064896 -3.250885,-19.056641c4.287277,-3.991776 12.693726,-1.931747 18.776398,4.601196c6.082672,6.532959 7.538177,15.064926 3.2509,19.056702z"/>
    <path fill="#ffffff" stroke="#000000" stroke-width="2" stroke-miterlimit="4" id="path3692" d="m195.452286,230.244583c-4.287231,3.991745 -12.693741,1.931671 -18.776413,-4.601273c-6.082672,-6.532944 -7.538132,-15.06488 -3.250885,-19.056625c4.287277,-3.991791 12.693726,-1.931747 18.776398,4.601196c6.082672,6.532944 7.538193,15.064911 3.2509,19.056702z"/>
   </g>
   <g id="g3694">
    <path fill="#ffffff" stroke="#000000" stroke-width="2" stroke-miterlimit="4" id="path3696" d="m197.386261,187.534409c0,5.857849 -7.236206,10.606598 -16.162476,10.606598c-8.92627,0 -16.162415,-4.748749 -16.162415,-10.606598c0,-5.85788 7.236145,-10.606598 16.162415,-10.606598c8.92627,0 16.162476,4.748718 16.162476,10.606598z"/>
    <path fill="#ffffff" stroke="#000000" stroke-width="2" stroke-miterlimit="4" id="path3698" d="m197.133728,184.503967c0,5.857849 -7.236191,10.606598 -16.162476,10.606598c-8.92627,0 -16.162415,-4.748749 -16.162415,-10.606598c0,-5.857895 7.236145,-10.606613 16.162415,-10.606613c8.926285,0 16.162476,4.748718 16.162476,10.606613z"/>
   </g>
   <g id="g3700">
    <path fill="#ffffff" stroke="#000000" stroke-width="2" stroke-miterlimit="4" id="path3702" d="m260.181396,145.354095c5.399536,2.271408 6.970886,10.782822 3.509674,19.010727c-3.461212,8.22789 -10.644287,13.056549 -16.043839,10.785126c-5.399567,-2.271423 -6.970901,-10.782776 -3.509689,-19.010666c3.461212,-8.227905 10.644287,-13.05661 16.043854,-10.785187z"/>
    <path fill="#ffffff" stroke="#000000" stroke-width="2" stroke-miterlimit="4" id="path3704" d="m257.290131,144.411789c5.399536,2.271408 6.970886,10.782822 3.509674,19.010727c-3.461212,8.22789 -10.644302,13.056549 -16.043839,10.785126c-5.399567,-2.271423 -6.970901,-10.782776 -3.509689,-19.010666c3.461212,-8.227905 10.644287,-13.056625 16.043854,-10.785187z"/>
   </g>
   <g id="g3706">
    <path fill="#ffffff" stroke="#000000" stroke-width="2" stroke-miterlimit="4" id="path3708" d="m236.534149,186.085785c-3.893143,-4.376968 -1.642303,-12.734436 5.027374,-18.666855c6.669693,-5.932419 15.232574,-7.193298 19.125702,-2.81633c3.893158,4.376984 1.642334,12.73436 -5.027374,18.666779c-6.669678,5.932419 -15.232559,7.193375 -19.125702,2.816406z"/>
    <path fill="#ffffff" stroke="#000000" stroke-width="2" stroke-miterlimit="4" id="path3710" d="m238.736847,188.182297c-3.893127,-4.376968 -1.642303,-12.734451 5.02739,-18.666855c6.669678,-5.932419 15.232559,-7.193298 19.125687,-2.81633c3.893158,4.376968 1.642334,12.73436 -5.027374,18.666779c-6.669678,5.932419 -15.232559,7.193375 -19.125702,2.816406z"/>
   </g>
   <g id="g3712">
    <path fill="#ffffff" stroke="#000000" stroke-width="2" stroke-miterlimit="4" id="path3714" d="m251.814835,183.422791c0,5.857849 -7.236206,10.606598 -16.162476,10.606598c-8.92627,0 -16.162415,-4.748749 -16.162415,-10.606598c0,-5.85788 7.236145,-10.606598 16.162415,-10.606598c8.92627,0 16.162476,4.748718 16.162476,10.606598z"/>
    <path fill="#ffffff" stroke="#000000" stroke-width="2" stroke-miterlimit="4" id="path3716" d="m251.562302,180.392334c0,5.857849 -7.236206,10.606598 -16.162476,10.606598c-8.92627,0 -16.162415,-4.748749 -16.162415,-10.606598c0,-5.857864 7.236145,-10.606598 16.162415,-10.606598c8.92627,0 16.162476,4.748734 16.162476,10.606598z"/>
   </g>
   <g id="g3718">
    <path fill="#ffffff" stroke="#000000" stroke-width="2" stroke-miterlimit="4" id="path3720" d="m143.137543,189.988297c-4.915543,-3.186188 -4.964478,-11.841278 -0.109329,-19.33165c4.855148,-7.490387 12.775833,-10.979614 17.691391,-7.793427c4.915604,3.186218 4.964569,11.841263 0.109421,19.331635c-4.855148,7.490387 -12.775879,10.97966 -17.691483,7.793442z"/>
    <path fill="#ffffff" stroke="#000000" stroke-width="2" stroke-miterlimit="4" id="path3722" d="m145.817856,191.424713c-4.915558,-3.186188 -4.964493,-11.841278 -0.109344,-19.33165c4.855148,-7.490387 12.775848,-10.979614 17.691391,-7.793427c4.915604,3.186218 4.964569,11.841263 0.109421,19.331635c-4.855148,7.490387 -12.775879,10.97966 -17.691467,7.793442z"/>
   </g>
   <g id="g3724">
    <path fill="#ffffff" stroke="#000000" stroke-width="2" stroke-miterlimit="4" id="path3726" d="m137.189804,212.541473c-5.76709,1.027237 -11.711159,-5.264099 -13.276482,-14.052048c-1.565315,-8.787964 1.840881,-16.744705 7.607964,-17.771942c5.767136,-1.027252 11.711197,5.264023 13.27652,14.051971c1.565323,8.787949 -1.840866,16.744766 -7.608002,17.772018z"/>
    <path fill="#ffffff" stroke="#000000" stroke-width="2" stroke-miterlimit="4" id="path3728" d="m140.128998,211.761444c-5.767075,1.027237 -11.711151,-5.264099 -13.276474,-14.052063c-1.565315,-8.787949 1.840881,-16.74469 7.607956,-17.771927c5.767136,-1.027252 11.711212,5.264023 13.27652,14.051971c1.565323,8.787949 -1.840866,16.744766 -7.608002,17.772018z"/>
   </g>
   <g id="g3730">
    <path fill="#ffffff" stroke="#000000" stroke-width="2" stroke-miterlimit="4" id="path3732" d="m142.516205,188.277328c5.646606,1.558914 8.298401,9.797913 5.922928,18.402298c-2.375488,8.604385 -8.878693,14.315842 -14.525299,12.756943c-5.646637,-1.558914 -8.298416,-9.797852 -5.922943,-18.402237c2.375473,-8.604385 8.878662,-14.315903 14.525314,-12.757004z"/>
    <path fill="#ffffff" stroke="#000000" stroke-width="2" stroke-miterlimit="4" id="path3734" d="m139.527863,187.714279c5.646606,1.558899 8.298401,9.797913 5.922913,18.402283c-2.375473,8.604385 -8.878677,14.315842 -14.525284,12.756943c-5.646645,-1.558914 -8.298416,-9.797852 -5.922943,-18.402237c2.375473,-8.604385 8.878662,-14.315903 14.525314,-12.756989z"/>
   </g>
   <g id="g3736">
    <path fill="#ffffff" stroke="#000000" stroke-width="2" stroke-miterlimit="4" id="path3738" d="m136.807083,239.689621c-3.18309,-4.917557 0.311142,-12.836151 7.804581,-17.686569c7.493439,-4.850433 16.148483,-4.795959 19.331573,0.121597c3.183075,4.917557 -0.311127,12.83606 -7.804565,17.686493c-7.493439,4.850418 -16.148499,4.796036 -19.331589,-0.121521z"/>
    <g id="g3740">
     <path fill="#ffffff" stroke="#000000" stroke-width="2" stroke-miterlimit="4" d="m138.665787,242.096405c-3.18309,-4.917557 0.311142,-12.836136 7.804581,-17.686569c7.493439,-4.850433 16.148483,-4.795944 19.331558,0.121613c3.18309,4.917557 -0.311127,12.836044 -7.804565,17.686478c-7.493439,4.850433 -16.148499,4.796036 -19.331573,-0.121521z" id="path3742"/>
    </g>
   </g>
   <g id="g3750">
    <path fill="#ffffff" stroke="#000000" stroke-width="2" stroke-miterlimit="4" id="path3752" d="m120.842804,180.980835c5.270752,2.556091 6.386017,11.139175 2.491013,19.170822c-3.895004,8.031631 -11.325333,12.470413 -16.596077,9.914322c-5.270775,-2.556107 -6.38604,-11.13913 -2.491035,-19.170761c3.895004,-8.031647 11.325325,-12.47049 16.5961,-9.914383z"/>
    <path fill="#ffffff" stroke="#000000" stroke-width="2" stroke-miterlimit="4" id="path3754" d="m118.005913,179.885696c5.270744,2.556091 6.386009,11.139175 2.491005,19.170822c-3.895004,8.031631 -11.325325,12.470413 -16.596069,9.914322c-5.270782,-2.556107 -6.386047,-11.13913 -2.491043,-19.170776c3.895012,-8.031631 11.325333,-12.470474 16.596107,-9.914368z"/>
   </g>
   <g id="g3762">
    <path fill="#ffffff" stroke="#000000" stroke-width="2" stroke-miterlimit="4" id="path3764" d="m145.666138,202.226227c-4.915543,-3.186188 -4.964493,-11.841278 -0.109344,-19.33165c4.855148,-7.490387 12.775848,-10.979614 17.691406,-7.793427c4.915604,3.186218 4.964569,11.841263 0.109421,19.331635c-4.855148,7.490387 -12.775879,10.97966 -17.691483,7.793442z"/>
    <path fill="#ffffff" stroke="#000000" stroke-width="2" stroke-miterlimit="4" id="path3766" d="m148.346436,203.662643c-4.915543,-3.186188 -4.964478,-11.841278 -0.109329,-19.33165c4.855148,-7.490387 12.775833,-10.979614 17.691391,-7.793427c4.915604,3.186218 4.964569,11.841263 0.109421,19.331635c-4.855148,7.490387 -12.775879,10.97966 -17.691483,7.793442z"/>
   </g>
   <g id="g3768">
    <path fill="#ffffff" stroke="#000000" stroke-width="2" stroke-miterlimit="4" id="path3770" d="m165.251877,223.824219c-4.915543,-3.186188 -4.964478,-11.841278 -0.109329,-19.33165c4.855148,-7.490387 12.775833,-10.979614 17.691391,-7.793427c4.915604,3.186218 4.964569,11.841263 0.109421,19.331635c-4.855148,7.490387 -12.775879,10.97966 -17.691483,7.793442z"/>
    <path fill="#ffffff" stroke="#000000" stroke-width="2" stroke-miterlimit="4" id="path3772" d="m167.93219,225.260635c-4.915558,-3.186188 -4.964493,-11.841278 -0.109344,-19.33165c4.855148,-7.490387 12.775848,-10.979614 17.691391,-7.793427c4.915604,3.186218 4.964569,11.841263 0.109421,19.331635c-4.855148,7.490387 -12.775879,10.97966 -17.691467,7.793442z"/>
   </g>
   <g id="g3774">
    <path fill="#ffffff" stroke="#000000" stroke-width="2" stroke-miterlimit="4" id="path3776" d="m266.772034,153.958084c5.596527,-1.730164 12.27066,3.78064 14.907104,12.308685c2.636414,8.528046 0.236786,16.843933 -5.359741,18.574097c-5.596527,1.730164 -12.27066,-3.780594 -14.907074,-12.30864c-2.636444,-8.528046 -0.236816,-16.843979 5.359711,-18.574142z"/>
    <path fill="#ffffff" stroke="#000000" stroke-width="2" stroke-miterlimit="4" id="path3778" d="m263.951385,155.094376c5.596497,-1.730148 12.27066,3.780655 14.907074,12.308701c2.636444,8.528046 0.236786,16.843933 -5.359711,18.574081c-5.596558,1.730164 -12.27066,-3.780594 -14.907074,-12.30864c-2.636444,-8.52803 -0.236847,-16.843979 5.359711,-18.574142z"/>
   </g>
   <g id="g3780">
    <path fill="#ffffff" stroke="#000000" stroke-width="2" stroke-miterlimit="4" id="path3782" d="m193.232941,183.65657c5.596512,-1.730148 12.270676,3.780655 14.907104,12.308701c2.636429,8.52803 0.236771,16.843933 -5.359741,18.574081c-5.596542,1.730164 -12.270645,-3.780594 -14.907074,-12.30864c-2.636429,-8.528046 -0.236832,-16.843979 5.359711,-18.574142z"/>
    <path fill="#ffffff" stroke="#000000" stroke-width="2" stroke-miterlimit="4" id="path3784" d="m190.412277,184.792862c5.596512,-1.730148 12.270676,3.780655 14.907104,12.308701c2.636429,8.528046 0.236771,16.843933 -5.359741,18.574097c-5.596542,1.730148 -12.270645,-3.780594 -14.907074,-12.30864c-2.636429,-8.528046 -0.236832,-16.843994 5.359711,-18.574158z"/>
   </g>
   <path fill="#ffffff" fill-rule="evenodd" stroke="#000000" stroke-width="2" stroke-miterlimit="4" id="path2400" d="m201.61409,251.178772l12.361694,126.39917l170.935287,-101.099609l5.560913,-103.555908l-188.857895,78.256348z"/>
   <g id="g3978">
    <path fill="#ffffff" stroke="#000000" stroke-width="2" stroke-miterlimit="4" id="path3980" d="m246.376373,156.258286c0,5.857849 -7.236206,10.606598 -16.162445,10.606598c-8.92627,0 -16.162445,-4.748749 -16.162445,-10.606598c0,-5.85788 7.236176,-10.606598 16.162445,-10.606598c8.926239,0 16.162445,4.748718 16.162445,10.606598z"/>
    <path fill="#ffffff" stroke="#000000" stroke-width="2" stroke-miterlimit="4" id="path3982" d="m246.123856,153.227829c0,5.857849 -7.236221,10.606598 -16.162445,10.606598c-8.926285,0 -16.16246,-4.748749 -16.16246,-10.606598c0,-5.85788 7.236176,-10.606598 16.16246,-10.606598c8.926224,0 16.162445,4.748718 16.162445,10.606598z"/>
   </g>
   <g id="g3984">
    <path fill="#ffffff" stroke="#000000" stroke-width="2" stroke-miterlimit="4" id="path3986" d="m223.448944,163.392715c0,-5.85791 7.236206,-10.606659 16.162476,-10.606659c8.926208,0 16.162354,4.748749 16.162354,10.606659c0,5.857819 -7.236145,10.606567 -16.162354,10.606567c-8.92627,0 -16.162476,-4.748749 -16.162476,-10.606567z"/>
    <path fill="#ffffff" stroke="#000000" stroke-width="2" stroke-miterlimit="4" id="path3988" d="m223.701431,166.423172c0,-5.85791 7.236206,-10.606659 16.162476,-10.606659c8.926208,0 16.162369,4.748749 16.162369,10.606659c0,5.857819 -7.23616,10.606567 -16.162369,10.606567c-8.92627,0 -16.162476,-4.748749 -16.162476,-10.606567z"/>
   </g>
   <g id="g3990">
    <path fill="#ffffff" stroke="#000000" stroke-width="2" stroke-miterlimit="4" id="path3992" d="m223.573868,153.747513c5.399536,2.271408 6.970871,10.782822 3.509659,19.010727c-3.461212,8.22789 -10.644287,13.056549 -16.043823,10.785126c-5.399582,-2.271423 -6.970901,-10.782776 -3.509689,-19.010666c3.461212,-8.227905 10.644272,-13.05661 16.043854,-10.785187z"/>
    <path fill="#ffffff" stroke="#000000" stroke-width="2" stroke-miterlimit="4" id="path3994" d="m220.682587,152.805206c5.399551,2.271408 6.970886,10.782822 3.509674,19.010727c-3.461212,8.22789 -10.644287,13.056534 -16.043823,10.785126c-5.399582,-2.271423 -6.970917,-10.782776 -3.509705,-19.010666c3.461227,-8.227905 10.644287,-13.056625 16.043854,-10.785187z"/>
   </g>
   <g id="g3996">
    <path fill="#ffffff" stroke="#000000" stroke-width="2" stroke-miterlimit="4" id="path3998" d="m238.452362,168.360611c0,-5.85791 7.236206,-10.606659 16.162476,-10.606659c8.92627,0 16.162415,4.748749 16.162415,10.606659c0,5.857819 -7.236145,10.606567 -16.162415,10.606567c-8.92627,0 -16.162476,-4.748749 -16.162476,-10.606567z"/>
    <path fill="#ffffff" stroke="#000000" stroke-width="2" stroke-miterlimit="4" id="path4000" d="m238.704849,171.391068c0,-5.85791 7.236206,-10.606659 16.162476,-10.606659c8.926285,0 16.16243,4.748749 16.16243,10.606659c0,5.857819 -7.236145,10.606567 -16.16243,10.606567c-8.92627,0 -16.162476,-4.748749 -16.162476,-10.606567z"/>
   </g>
   <g id="g4002">
    <path fill="#ffffff" stroke="#000000" stroke-width="2" stroke-miterlimit="4" id="path4004" d="m178.676788,166.255753c0,-5.85791 7.236206,-10.606628 16.162476,-10.606628c8.92627,0 16.162415,4.748718 16.162415,10.606628c0,5.857819 -7.236145,10.606537 -16.162415,10.606537c-8.92627,0 -16.162476,-4.748718 -16.162476,-10.606537z"/>
    <path fill="#ffffff" stroke="#000000" stroke-width="2" stroke-miterlimit="4" id="path4006" d="m178.929276,169.286209c0,-5.85791 7.236206,-10.606628 16.162476,-10.606628c8.92627,0 16.162415,4.748718 16.162415,10.606628c0,5.857819 -7.236145,10.606537 -16.162415,10.606537c-8.92627,0 -16.162476,-4.748718 -16.162476,-10.606537z"/>
   </g>
   <g id="g4008">
    <path fill="#ffffff" stroke="#000000" stroke-width="2" stroke-miterlimit="4" id="path4010" d="m222.882645,201.641251c-4.287231,3.991745 -12.693741,1.931686 -18.776413,-4.601257c-6.082672,-6.532959 -7.538132,-15.064896 -3.2509,-19.056641c4.287277,-3.991776 12.693726,-1.931747 18.776398,4.601196c6.082672,6.532959 7.538193,15.064926 3.250916,19.056702z"/>
    <path fill="#ffffff" stroke="#000000" stroke-width="2" stroke-miterlimit="4" id="path4012" d="m224.928482,199.391388c-4.287231,3.991745 -12.693741,1.931671 -18.776413,-4.601273c-6.082672,-6.532944 -7.538132,-15.06488 -3.2509,-19.056625c4.287292,-3.991791 12.693741,-1.931747 18.776413,4.601196c6.082657,6.532944 7.538177,15.064911 3.2509,19.056702z"/>
   </g>
   <g id="g4014">
    <path fill="#ffffff" stroke="#000000" stroke-width="2" stroke-miterlimit="4" id="path4016" d="m130.236725,195.893021c5.399536,2.271423 6.970871,10.782837 3.509659,19.010727c-3.461212,8.227905 -10.644279,13.056549 -16.043823,10.785141c-5.399574,-2.271439 -6.970901,-10.782776 -3.509689,-19.010681c3.461212,-8.22789 10.644279,-13.05661 16.043854,-10.785187z"/>
    <path fill="#ffffff" stroke="#000000" stroke-width="2" stroke-miterlimit="4" id="path4018" d="m127.345451,194.950714c5.399544,2.271423 6.970879,10.782837 3.509666,19.010727c-3.461212,8.227905 -10.644287,13.056549 -16.043823,10.785126c-5.399574,-2.271423 -6.970909,-10.782761 -3.509697,-19.010666c3.46122,-8.22789 10.644287,-13.05661 16.043854,-10.785187z"/>
   </g>
   <g id="g4020">
    <path fill="#ffffff" stroke="#000000" stroke-width="2" stroke-miterlimit="4" id="path4022" d="m165.185715,188.942032c-3.893143,-4.376968 -1.642303,-12.734436 5.027374,-18.666855c6.669693,-5.932419 15.232574,-7.193298 19.125702,-2.81633c3.893143,4.376984 1.642319,12.73436 -5.027374,18.666779c-6.669678,5.932419 -15.232559,7.193375 -19.125702,2.816406z"/>
    <path fill="#ffffff" stroke="#000000" stroke-width="2" stroke-miterlimit="4" id="path4024" d="m167.388412,191.038544c-3.893127,-4.376968 -1.642303,-12.734451 5.02739,-18.666855c6.669678,-5.932419 15.232559,-7.193298 19.125702,-2.81633c3.893127,4.376984 1.642303,12.73436 -5.027374,18.666779c-6.669693,5.932419 -15.232574,7.193375 -19.125717,2.816406z"/>
   </g>
   <g id="g4038">
    <path fill="#ffffff" stroke="#000000" stroke-width="2" stroke-miterlimit="4" id="path4040" d="m350.428925,172.305099c0,-5.85788 7.236206,-10.606598 16.162476,-10.606598c8.92627,0 16.162415,4.748718 16.162415,10.606598c0,5.85788 -7.236145,10.606567 -16.162415,10.606567c-8.92627,0 -16.162476,-4.748688 -16.162476,-10.606567z"/>
    <path fill="#ffffff" stroke="#000000" stroke-width="2" stroke-miterlimit="4" id="path4042" d="m350.681427,175.335556c0,-5.85788 7.236206,-10.606598 16.162476,-10.606598c8.92627,0 16.162415,4.748718 16.162415,10.606598c0,5.85788 -7.236145,10.606567 -16.162415,10.606567c-8.92627,0 -16.162476,-4.748688 -16.162476,-10.606567z"/>
   </g>
   <g id="g4044">
    <path fill="#ffffff" stroke="#000000" stroke-width="2" stroke-miterlimit="4" id="path4046" d="m203.584763,212.640945c5.596512,-1.730148 12.27066,3.780655 14.907089,12.308701c2.636429,8.528046 0.236771,16.843933 -5.359741,18.574081c-5.596542,1.730164 -12.270645,-3.780594 -14.907074,-12.30864c-2.636429,-8.52803 -0.236816,-16.843979 5.359726,-18.574142z"/>
    <path fill="#ffffff" stroke="#000000" stroke-width="2" stroke-miterlimit="4" id="path4048" d="m200.764099,213.777252c5.596512,-1.730164 12.27066,3.780655 14.907089,12.308685c2.636429,8.528046 0.236786,16.843948 -5.359726,18.574097c-5.596542,1.730164 -12.27066,-3.780594 -14.907089,-12.30864c-2.636429,-8.528046 -0.236816,-16.843979 5.359726,-18.574142z"/>
   </g>
   <g id="g4098">
    <path fill="#ffffff" stroke="#000000" stroke-width="2" stroke-miterlimit="4" id="path4100" d="m195.058807,170.349136c0,-5.85788 7.236206,-10.606628 16.162476,-10.606628c8.92627,0 16.162476,4.748749 16.162476,10.606628c0,5.857849 -7.236206,10.606567 -16.162476,10.606567c-8.92627,0 -16.162476,-4.748718 -16.162476,-10.606567z"/>
    <path fill="#ffffff" stroke="#000000" stroke-width="2" stroke-miterlimit="4" id="path4102" d="m195.311295,173.379593c0,-5.85788 7.236206,-10.606628 16.162476,-10.606628c8.92627,0 16.162476,4.748749 16.162476,10.606628c0,5.857849 -7.236206,10.606567 -16.162476,10.606567c-8.92627,0 -16.162476,-4.748718 -16.162476,-10.606567z"/>
   </g>
   <g id="g4104">
    <path fill="#ffffff" stroke="#000000" stroke-width="2" stroke-miterlimit="4" id="path4106" d="m310.716705,179.029343c-4.287262,3.991745 -12.693756,1.931686 -18.776428,-4.601257c-6.082672,-6.532944 -7.538116,-15.064896 -3.250885,-19.056641c4.287262,-3.991776 12.693726,-1.931747 18.776398,4.601212c6.082672,6.532944 7.538177,15.064911 3.250916,19.056686z"/>
    <path fill="#ffffff" stroke="#000000" stroke-width="2" stroke-miterlimit="4" id="path4108" d="m312.762543,176.77948c-4.287231,3.991745 -12.693756,1.931686 -18.776428,-4.601273c-6.082672,-6.532944 -7.538116,-15.06488 -3.250885,-19.056625c4.287262,-3.991791 12.693726,-1.931747 18.776398,4.601196c6.082672,6.532944 7.538177,15.064911 3.250916,19.056702z"/>
   </g>
   <g id="g4110">
    <path fill="#ffffff" stroke="#000000" stroke-width="2" stroke-miterlimit="4" id="path4112" d="m265.89743,164.950165c5.399536,2.271423 6.970886,10.782837 3.509674,19.010727c-3.461212,8.227905 -10.644287,13.056549 -16.043839,10.785141c-5.399582,-2.271439 -6.970901,-10.782776 -3.509689,-19.010681c3.461212,-8.22789 10.644287,-13.05661 16.043854,-10.785187z"/>
    <path fill="#ffffff" stroke="#000000" stroke-width="2" stroke-miterlimit="4" id="path4114" d="m263.006165,164.007858c5.399536,2.271408 6.970886,10.782837 3.509674,19.010727c-3.461243,8.22789 -10.644302,13.056549 -16.043839,10.785126c-5.399582,-2.271423 -6.970917,-10.782776 -3.509689,-19.010666c3.461212,-8.22789 10.644287,-13.05661 16.043854,-10.785187z"/>
   </g>
   <g id="g4122">
    <path fill="#ffffff" stroke="#000000" stroke-width="2" stroke-miterlimit="4" id="path4124" d="m298.915619,175.988388c0,5.857834 -7.236206,10.606583 -16.162476,10.606583c-8.92627,0 -16.162415,-4.748749 -16.162415,-10.606583c0,-5.857895 7.236145,-10.606613 16.162415,-10.606613c8.92627,0 16.162476,4.748718 16.162476,10.606613z"/>
    <path fill="#ffffff" stroke="#000000" stroke-width="2" stroke-miterlimit="4" id="path4126" d="m298.663116,172.957932c0,5.857849 -7.236206,10.606598 -16.162476,10.606598c-8.92627,0 -16.162415,-4.748749 -16.162415,-10.606598c0,-5.85788 7.236145,-10.606598 16.162415,-10.606598c8.92627,0 16.162476,4.748718 16.162476,10.606598z"/>
   </g>
   <g id="g4128">
    <path fill="#ffffff" stroke="#000000" stroke-width="2" stroke-miterlimit="4" id="path4130" d="m253.763138,139.42514c0.721939,5.813187 -5.873871,11.417542 -14.732086,12.517639c-8.858185,1.100082 -16.62442,-2.720657 -17.346344,-8.533859c-0.721939,-5.813217 5.873795,-11.417542 14.731979,-12.517624c8.858231,-1.100098 16.624512,2.720612 17.346451,8.533844z"/>
    <path fill="#ffffff" stroke="#000000" stroke-width="2" stroke-miterlimit="4" id="path4132" d="m253.139084,136.448914c0.721939,5.813202 -5.873871,11.417557 -14.732086,12.517639c-8.858185,1.100098 -16.62442,-2.720657 -17.346344,-8.533844c-0.721939,-5.813232 5.873795,-11.417542 14.731979,-12.517632c8.858231,-1.10009 16.624512,2.720619 17.346451,8.533836z"/>
   </g>
   <g id="g4140">
    <path fill="#ffffff" stroke="#000000" stroke-width="2" stroke-miterlimit="4" id="path4142" d="m160.660797,179.685745c5.596527,-1.730148 12.270676,3.780655 14.907104,12.308701c2.636429,8.52803 0.236771,16.843933 -5.359741,18.574081c-5.596542,1.730164 -12.270645,-3.780594 -14.907074,-12.30864c-2.636429,-8.528046 -0.236832,-16.843979 5.359711,-18.574142z"/>
    <path fill="#ffffff" stroke="#000000" stroke-width="2" stroke-miterlimit="4" id="path4144" d="m157.840149,180.822052c5.596512,-1.730164 12.27066,3.78064 14.907089,12.308685c2.636429,8.528046 0.236786,16.843933 -5.359741,18.574097c-5.596542,1.730148 -12.270645,-3.780594 -14.907074,-12.30864c-2.636429,-8.528046 -0.236816,-16.843994 5.359726,-18.574142z"/>
   </g>
   <g id="g4146">
    <path fill="#ffffff" stroke="#000000" stroke-width="2" stroke-miterlimit="4" id="path4148" d="m310.968292,175.867325c0,-5.857941 7.236206,-10.606628 16.162476,-10.606628c8.92627,0 16.162415,4.748688 16.162415,10.606628c0,5.857849 -7.236145,10.606567 -16.162415,10.606567c-8.92627,0 -16.162476,-4.748718 -16.162476,-10.606567z"/>
    <path fill="#ffffff" stroke="#000000" stroke-width="2" stroke-miterlimit="4" id="path4150" d="m311.220795,178.897781c0,-5.857941 7.236206,-10.606628 16.162476,-10.606628c8.92627,0 16.162415,4.748688 16.162415,10.606628c0,5.857849 -7.236145,10.606567 -16.162415,10.606567c-8.92627,0 -16.162476,-4.748718 -16.162476,-10.606567z"/>
   </g>
   <g id="g4152">
    <path fill="#ffffff" stroke="#000000" stroke-width="2" stroke-miterlimit="4" id="path4154" d="m335.383789,162.784637c5.596497,-1.730148 12.27066,3.780655 14.907074,12.308701c2.636444,8.52803 0.236786,16.843933 -5.359741,18.574081c-5.596527,1.730164 -12.27063,-3.780594 -14.907074,-12.30864c-2.636414,-8.528046 -0.236816,-16.843979 5.359741,-18.574142z"/>
    <path fill="#ffffff" stroke="#000000" stroke-width="2" stroke-miterlimit="4" id="path4156" d="m332.56311,163.920944c5.596527,-1.730164 12.27066,3.78064 14.907104,12.308685c2.636414,8.528046 0.236786,16.843933 -5.359741,18.574097c-5.596558,1.730164 -12.27066,-3.780594 -14.907074,-12.30864c-2.636444,-8.528046 -0.236816,-16.843994 5.359711,-18.574142z"/>
   </g>
   <g id="g4158">
    <path fill="#ffffff" stroke="#000000" stroke-width="2" stroke-miterlimit="4" id="path4160" d="m245.463287,174.338852c0,-5.85791 7.236206,-10.606628 16.162476,-10.606628c8.92627,0 16.162415,4.748718 16.162415,10.606628c0,5.857849 -7.236145,10.606567 -16.162415,10.606567c-8.92627,0 -16.162476,-4.748718 -16.162476,-10.606567z"/>
    <path fill="#ffffff" stroke="#000000" stroke-width="2" stroke-miterlimit="4" id="path4162" d="m245.715775,177.369308c0,-5.85791 7.236206,-10.606628 16.162491,-10.606628c8.92627,0 16.162415,4.748718 16.162415,10.606628c0,5.857849 -7.236145,10.606567 -16.162415,10.606567c-8.926285,0 -16.162491,-4.748718 -16.162491,-10.606567z"/>
   </g>
   <g id="g4176">
    <path fill="#ffffff" stroke="#000000" stroke-width="2" stroke-miterlimit="4" id="path4178" d="m264.037903,167.952209c0,5.857849 -7.236206,10.606613 -16.16246,10.606613c-8.92627,0 -16.162415,-4.748764 -16.162415,-10.606613c0,-5.857864 7.236145,-10.606583 16.162415,-10.606583c8.926254,0 16.16246,4.748718 16.16246,10.606583z"/>
    <path fill="#ffffff" stroke="#000000" stroke-width="2" stroke-miterlimit="4" id="path4180" d="m263.7854,164.921768c0,5.857849 -7.236206,10.606598 -16.162491,10.606598c-8.92627,0 -16.162415,-4.748749 -16.162415,-10.606598c0,-5.85788 7.236145,-10.606598 16.162415,-10.606598c8.926285,0 16.162491,4.748718 16.162491,10.606598z"/>
   </g>
   <g id="g4182">
    <path fill="#ffffff" stroke="#000000" stroke-width="2" stroke-miterlimit="4" id="path4184" d="m327.370514,172.221405c0.721924,5.813187 -5.873871,11.417542 -14.732086,12.517639c-8.858185,1.100082 -16.62442,-2.720673 -17.346344,-8.533859c-0.721954,-5.813217 5.873779,-11.417542 14.731964,-12.517624c8.858246,-1.100098 16.624512,2.720612 17.346466,8.533844z"/>
    <path fill="#ffffff" stroke="#000000" stroke-width="2" stroke-miterlimit="4" id="path4186" d="m326.74646,169.245178c0.721924,5.813187 -5.873871,11.417542 -14.732086,12.517639c-8.858185,1.100082 -16.62442,-2.720657 -17.346344,-8.533859c-0.721954,-5.813217 5.873779,-11.417526 14.731964,-12.517624c8.858246,-1.100082 16.624512,2.720627 17.346466,8.533844z"/>
   </g>
   <g id="g4194">
    <path fill="#ffffff" stroke="#000000" stroke-width="2" stroke-miterlimit="4" id="path4196" d="m192.25145,163.933701c5.596512,-1.730164 12.27066,3.78064 14.907089,12.308685c2.636429,8.528046 0.236786,16.843933 -5.359726,18.574097c-5.596558,1.730164 -12.27066,-3.780594 -14.907089,-12.30864c-2.636429,-8.528046 -0.236816,-16.843979 5.359726,-18.574142z"/>
    <path fill="#ffffff" stroke="#000000" stroke-width="2" stroke-miterlimit="4" id="path4198" d="m189.430786,165.069992c5.596512,-1.730148 12.27066,3.780655 14.907089,12.308701c2.636429,8.528046 0.236786,16.843933 -5.359726,18.574081c-5.596542,1.730164 -12.270645,-3.780594 -14.907089,-12.30864c-2.636429,-8.52803 -0.236816,-16.843979 5.359726,-18.574142z"/>
   </g>
   <g id="g4212">
    <path fill="#ffffff" stroke="#000000" stroke-width="2" stroke-miterlimit="4" id="path4214" d="m248.434921,165.738846c0,5.857834 -7.236206,10.606583 -16.162476,10.606583c-8.92627,0 -16.162415,-4.748749 -16.162415,-10.606583c0,-5.857895 7.236145,-10.606613 16.162415,-10.606613c8.92627,0 16.162476,4.748718 16.162476,10.606613z"/>
    <path fill="#ffffff" stroke="#000000" stroke-width="2" stroke-miterlimit="4" id="path4216" d="m248.182388,162.708389c0,5.857849 -7.236206,10.606598 -16.162476,10.606598c-8.92627,0 -16.162415,-4.748749 -16.162415,-10.606598c0,-5.85788 7.236145,-10.606598 16.162415,-10.606598c8.92627,0 16.162476,4.748718 16.162476,10.606598z"/>
   </g>
   <g id="g4218">
    <path fill="#ffffff" stroke="#000000" stroke-width="2" stroke-miterlimit="4" id="path4220" d="m327.558105,191.497925c0.721924,5.813187 -5.873871,11.417542 -14.732086,12.517624c-8.858185,1.100098 -16.62442,-2.720657 -17.346344,-8.533844c-0.721954,-5.813217 5.873779,-11.417542 14.731995,-12.517624c8.858215,-1.100098 16.624481,2.720612 17.346436,8.533844z"/>
    <path fill="#ffffff" stroke="#000000" stroke-width="2" stroke-miterlimit="4" id="path4222" d="m326.934052,188.521698c0.721924,5.813187 -5.873871,11.417542 -14.732086,12.517639c-8.858185,1.100082 -16.62442,-2.720657 -17.346344,-8.533859c-0.721954,-5.813217 5.873779,-11.417526 14.731995,-12.517624c8.858215,-1.100082 16.624481,2.720627 17.346436,8.533844z"/>
   </g>
   <g id="g4224">
    <path fill="#ffffff" stroke="#000000" stroke-width="2" stroke-miterlimit="4" id="path4226" d="m264.875092,198.061417c0,-5.85791 7.236206,-10.606628 16.162476,-10.606628c8.92627,0 16.162415,4.748718 16.162415,10.606628c0,5.857849 -7.236145,10.606567 -16.162415,10.606567c-8.92627,0 -16.162476,-4.748718 -16.162476,-10.606567z"/>
    <path fill="#ffffff" stroke="#000000" stroke-width="2" stroke-miterlimit="4" id="path4228" d="m265.127594,201.091873c0,-5.85791 7.236206,-10.606628 16.162476,-10.606628c8.92627,0 16.162415,4.748718 16.162415,10.606628c0,5.857849 -7.236145,10.606567 -16.162415,10.606567c-8.92627,0 -16.162476,-4.748718 -16.162476,-10.606567z"/>
   </g>
   <g id="g4318">
    <path fill="#ffffff" stroke="#000000" stroke-width="2" stroke-miterlimit="4" id="path4320" d="m189.502853,164.898773c0,5.857849 -7.236206,10.606598 -16.162476,10.606598c-8.92627,0 -16.162415,-4.748749 -16.162415,-10.606598c0,-5.85788 7.236145,-10.606598 16.162415,-10.606598c8.92627,0 16.162476,4.748718 16.162476,10.606598z"/>
    <path fill="#ffffff" stroke="#000000" stroke-width="2" stroke-miterlimit="4" id="path4322" d="m189.25032,161.868332c0,5.857849 -7.236206,10.606598 -16.162476,10.606598c-8.92627,0 -16.162415,-4.748749 -16.162415,-10.606598c0,-5.85788 7.236145,-10.606598 16.162415,-10.606598c8.92627,0 16.162476,4.748718 16.162476,10.606598z"/>
   </g>
   <g id="g4328">
    <path fill="#ffffff" stroke="#000000" stroke-width="2" stroke-miterlimit="4" id="path4330" d="m214.118088,205.053116c0,5.857834 -7.236206,10.606598 -16.162476,10.606598c-8.92627,0 -16.162415,-4.748764 -16.162415,-10.606598c0,-5.85788 7.236145,-10.606613 16.162415,-10.606613c8.92627,0 16.162476,4.748734 16.162476,10.606613z"/>
    <path fill="#ffffff" stroke="#000000" stroke-width="2" stroke-miterlimit="4" id="path4332" d="m213.865555,202.022659c0,5.857849 -7.236206,10.606598 -16.162476,10.606598c-8.92627,0 -16.162415,-4.748749 -16.162415,-10.606598c0,-5.85788 7.236145,-10.606598 16.162415,-10.606598c8.92627,0 16.162476,4.748718 16.162476,10.606598z"/>
   </g>
   <g id="g4338">
    <path fill="#ffffff" stroke="#000000" stroke-width="2" stroke-miterlimit="4" id="path4340" d="m243.816574,169.697754c0,5.857849 -7.236206,10.606598 -16.162476,10.606598c-8.92627,0 -16.162415,-4.748749 -16.162415,-10.606598c0,-5.85788 7.236145,-10.606598 16.162415,-10.606598c8.92627,0 16.162476,4.748718 16.162476,10.606598z"/>
    <path fill="#ffffff" stroke="#000000" stroke-width="2" stroke-miterlimit="4" id="path4342" d="m243.564041,166.667313c0,5.857834 -7.236206,10.606583 -16.162476,10.606583c-8.92627,0 -16.162415,-4.748749 -16.162415,-10.606583c0,-5.85788 7.236145,-10.606598 16.162415,-10.606598c8.92627,0 16.162476,4.748718 16.162476,10.606598z"/>
   </g>
   <g id="g4348">
    <path fill="#ffffff" stroke="#000000" stroke-width="2" stroke-miterlimit="4" id="path4350" d="m267.11557,208.131531c0,5.857849 -7.236206,10.606598 -16.162491,10.606598c-8.926239,0 -16.162399,-4.748749 -16.162399,-10.606598c0,-5.85788 7.23616,-10.606598 16.162399,-10.606598c8.926285,0 16.162491,4.748718 16.162491,10.606598z"/>
    <path fill="#ffffff" stroke="#000000" stroke-width="2" stroke-miterlimit="4" id="path4352" d="m266.863068,205.101074c0,5.857849 -7.236206,10.606598 -16.162521,10.606598c-8.926239,0 -16.162399,-4.748749 -16.162399,-10.606598c0,-5.85788 7.23616,-10.606598 16.162399,-10.606598c8.926315,0 16.162521,4.748718 16.162521,10.606598z"/>
   </g>
   <g id="g4368">
    <path fill="#ffffff" stroke="#000000" stroke-width="2" stroke-miterlimit="4" id="path4370" d="m255.130295,178.183044c0,5.857849 -7.236206,10.606583 -16.162476,10.606583c-8.92627,0 -16.162415,-4.748734 -16.162415,-10.606583c0,-5.85788 7.236145,-10.606613 16.162415,-10.606613c8.92627,0 16.162476,4.748734 16.162476,10.606613z"/>
    <path fill="#ffffff" stroke="#000000" stroke-width="2" stroke-miterlimit="4" id="path4372" d="m254.877762,175.152588c0,5.857849 -7.236206,10.606598 -16.162476,10.606598c-8.92627,0 -16.162415,-4.748749 -16.162415,-10.606598c0,-5.85788 7.236145,-10.606598 16.162415,-10.606598c8.92627,0 16.162476,4.748718 16.162476,10.606598z"/>
   </g>
   <path stroke-width="2" fill="#ffffff" fill-rule="evenodd" stroke="#000000" id="path2398" d="m97.466141,209.999908l10.744385,112.604034l91.893433,53.578674l-11.111694,-125.258911l-91.526123,-40.923798z"/>
   <path fill="#ffffff" stroke="#000000" stroke-width="2" id="path3679" d="m195.520096,240.5l-0.5625,6.78125"/>
   <path fill="#ffffff" stroke="#000000" stroke-width="2" id="path3681" d="m379.520081,166l15.5,-2"/>
   <path fill="#ffffff" fill-rule="evenodd" stroke="#000000" stroke-width="2" id="path3795" d="m91.520096,201.5l3,23.5l102.5,47.5l-2,-26.5l-103.5,-44.5z"/>
   <path fill="#ffffff" fill-rule="evenodd" stroke="#000000" stroke-width="2" id="path3797" d="m94.770096,225.25l0.75,18.75l103,45l-2,-17.5l-101.75,-46.25z"/>
   <path fill="#ffffff" fill-rule="evenodd" stroke="#000000" stroke-width="2" id="path3799" d="m96.020096,245l1.5,17.5l103.5,45.5l-2,-18l-103,-45z"/>
   <path fill="#ffffff" fill-rule="evenodd" stroke="#000000" stroke-width="2" id="path3801" d="m97.520096,263.5l1.5,17l104.5,48l-1.5,-20.5l-104.5,-44.5z"/>
   <path fill="#ffffff" fill-rule="evenodd" stroke="#000000" stroke-width="2" id="path3803" d="m99.020096,281.5l1.5,15l104,51.5l-1.5,-20.5l-104,-46z"/>
   <path fill="#ffffff" fill-rule="evenodd" stroke="#000000" stroke-width="2" id="path3805" d="m100.270096,296.75l2.25,15.25l103.5,57.5l-1.5,-21.5l-104.25,-51.25z"/>
   <path fill="#ffffff" fill-rule="evenodd" stroke="#000000" stroke-width="2" id="path3807" d="m102.520096,312l1,13l105.5,61.5l-3,-16l-103.5,-58.5z"/>
   <path fill="#ffffff" stroke="#000000" stroke-width="2" id="path3871" d="m195.631271,241.005981l-0.5625,6.78125"/>
   <g id="g3937">
    <path fill="#ffffff" fill-rule="evenodd" stroke="#000000" stroke-width="2" d="m195.403656,248.149658l201.14267,-83.271774l-5.850708,116.090378l-181.107697,106.784363l-14.184265,-139.602966z" id="path3839"/>
    <path fill="#ffffff" fill-rule="evenodd" stroke="#000000" stroke-width="2" d="m195.617325,248.749954l1.845001,21.084305l198.313095,-89.414032l0.910034,-15.780441l-201.06813,84.110168z" id="path3863"/>
    <path fill="#ffffff" fill-rule="evenodd" stroke="#000000" stroke-width="2" d="m197.960022,269.834198l1.553467,16.690399l194.416962,-88.97673l2.403046,-17.042282l-198.373474,89.328613z" id="path3865"/>
    <path fill="#ffffff" fill-rule="evenodd" stroke="#000000" stroke-width="2" d="m199.659241,287.519989l1.638855,19.239258l192.486542,-92.933243l0.497711,-16.484268l-194.623108,90.178253z" id="path3867"/>
    <path fill="#ffffff" fill-rule="evenodd" stroke="#000000" stroke-width="2" d="m202.107941,307.114105l1.407684,16.540344l190.038025,-92.555527l0.351959,-17.596191l-191.797668,93.611374z" id="path3907"/>
    <path fill="#ffffff" fill-rule="evenodd" stroke="#000000" stroke-width="2" d="m204.219467,323.302551l1.055771,19.707672l187.574585,-98.538284l0.351959,-13.72496l-188.982315,92.555573z" id="path3909"/>
    <path fill="#ffffff" fill-rule="evenodd" stroke="#000000" stroke-width="2" d="m205.979065,343.714081l1.055771,18.651886l184.055374,-99.945953l1.407684,-17.244186l-186.518829,98.538254z" id="path3911"/>
    <path fill="#ffffff" fill-rule="evenodd" stroke="#000000" stroke-width="2" d="m207.738678,363.069794l1.759598,24.282654l181.591934,-106.632507l0,-18.651886l-183.351532,101.00174z" id="path3913"/>
   </g>
   <path fill="#ffffff" stroke="#000000" stroke-width="2" stroke-linecap="round" stroke-miterlimit="4" id="path3785" d="m154.581375,356.604614c-34.029877,-20.199219 -51.171387,-30.759705 -51.694824,-31.848022c-0.898285,-1.867554 -12.022568,-122.622986 -11.362579,-123.28299c0.35994,-0.359924 102.370941,43.381683 104.678375,45.108978c1.963745,1.470032 13.001068,139.144897 12.452545,140.433044c-0.125397,0.294495 -26.072083,-13.790161 -54.073517,-30.411072l0,0l0,0.000061zm38.537323,8.813538c0,-1.047424 -2.089172,-26.264587 -4.642578,-56.038208c-3.102509,-36.176331 -3.92041,-54.57489 -4.480072,-54.959717c-1.327057,-0.912537 -79.584534,-34.092834 -79.820618,-33.856689c-0.427704,0.427673 8.408539,99.743408 8.893127,99.954834c0.27536,0.120178 18.160614,10.677734 39.745026,23.461182c21.584442,12.783508 39.483093,23.265259 39.77478,23.292847c0.291687,0.027588 0.530334,-0.806824 0.530334,-1.854248l0,0z"/>
   <g id="g3556">
    <path fill="#ffffff" stroke="#000000" stroke-width="2" stroke-miterlimit="4" id="path3450" d="m362.508911,174.194489c0.721954,5.813187 -5.87384,11.417542 -14.732056,12.517639c-8.858215,1.100082 -16.62442,-2.720657 -17.346375,-8.533859c-0.721924,-5.813217 5.87381,-11.417542 14.731995,-12.517624c8.858215,-1.100098 16.624512,2.720612 17.346436,8.533844z"/>
    <path fill="#ffffff" stroke="#000000" stroke-width="2" stroke-miterlimit="4" id="path3452" d="m361.884857,171.218262c0.721954,5.813202 -5.87384,11.417557 -14.732056,12.517639c-8.858215,1.100098 -16.62442,-2.720657 -17.346375,-8.533844c-0.721924,-5.813232 5.87381,-11.417542 14.731995,-12.517639c8.858215,-1.100082 16.624512,2.720627 17.346436,8.533844z"/>
   </g>
   <g id="g3682">
    <path fill="#ffffff" stroke="#000000" stroke-width="2" stroke-miterlimit="4" id="path3684" d="m274.198578,156.059952c0,-5.85791 7.236206,-10.606628 16.162476,-10.606628c8.92627,0 16.162415,4.748718 16.162415,10.606628c0,5.857849 -7.236145,10.606567 -16.162415,10.606567c-8.92627,0 -16.162476,-4.748718 -16.162476,-10.606567z"/>
    <path fill="#ffffff" stroke="#000000" stroke-width="2" stroke-miterlimit="4" id="path3686" d="m274.45108,159.090408c0,-5.85791 7.236206,-10.606628 16.162476,-10.606628c8.92627,0 16.162415,4.748718 16.162415,10.606628c0,5.857849 -7.236145,10.606567 -16.162415,10.606567c-8.92627,0 -16.162476,-4.748718 -16.162476,-10.606567z"/>
   </g>
   <path fill="#ffffff" stroke="#000000" stroke-width="2" stroke-linecap="round" stroke-miterlimit="4" id="path3843" d="m209.282242,387.641235c-0.507385,-6.543518 -13.996826,-139.597778 -13.402527,-140.191956c1.054596,-1.054565 200.675888,-82.929169 201.114304,-82.490784c0.456635,0.456421 -5.727325,115.116821 -6.228699,115.558411c-0.583191,0.513611 -173.534866,102.414917 -176.485977,104.290588c-2.877258,1.828674 -1.891602,1.111145 -4.997101,2.83374zm171.208298,-112.226318c0.623352,-0.57196 5.655701,-91.829224 5.098999,-92.464264c-0.352905,-0.402557 -174.963699,71.335541 -177.070602,72.748688c-0.232208,0.155701 1.83609,24.90979 4.596191,55.008972c2.760315,30.099182 5.018494,55.970764 5.018494,57.492432c4.0625,-1.824951 63.222946,-35.0271 84.145737,-46.497437c26.038971,-15.481384 52.24353,-30.686768 78.211182,-46.288391z"/>
   <path fill="#ffffff" fill-rule="evenodd" stroke="#000000" stroke-width="2" id="path3643" d="m91.41655,200.948212l6.410309,-2.931763l99.193237,43.09964l183.999985,-74.741089l-112.5,-13.75l5.125,-5.75l122.750031,17.25l-199.991135,83.109802l-104.987427,-46.286591z"/>
   <g id="g4032">
    <path fill="#ffffff" stroke="#000000" stroke-width="2" stroke-miterlimit="4" id="path4034" d="m297.301239,148.717743c0.721924,5.813202 -5.873871,11.417557 -14.732086,12.517639c-8.858154,1.100098 -16.62439,-2.720657 -17.346344,-8.533844c-0.721924,-5.813232 5.87381,-11.417542 14.731995,-12.517639c8.858215,-1.100082 16.624512,2.720627 17.346436,8.533844z"/>
    <path fill="#ffffff" stroke="#000000" stroke-width="2" stroke-miterlimit="4" id="path4036" d="m296.677185,145.741531c0.721924,5.813187 -5.873871,11.417542 -14.732086,12.517639c-8.858154,1.100082 -16.62439,-2.720673 -17.346344,-8.533859c-0.721924,-5.813217 5.87381,-11.417542 14.731995,-12.517624c8.858215,-1.100098 16.624512,2.720612 17.346436,8.533844z"/>
   </g>
   <g id="g3744">
    <path fill="#ffffff" stroke="#000000" stroke-width="2" stroke-miterlimit="4" id="path3746" d="m319.671783,183.089996c0.721954,5.813187 -5.87384,11.417542 -14.732086,12.517639c-8.858185,1.100082 -16.62442,-2.720657 -17.346344,-8.533859c-0.721924,-5.813217 5.87381,-11.417542 14.731995,-12.517624c8.858215,-1.100098 16.624512,2.720627 17.346436,8.533844z"/>
    <path fill="#ffffff" stroke="#000000" stroke-width="2" stroke-miterlimit="4" id="path3748" d="m319.047729,180.11377c0.721954,5.813202 -5.87384,11.417557 -14.732086,12.517639c-8.858185,1.100098 -16.62442,-2.720657 -17.346344,-8.533844c-0.721924,-5.813217 5.87381,-11.417542 14.731995,-12.517639c8.858215,-1.100082 16.624512,2.720627 17.346436,8.533844z"/>
   </g>
   <g id="g3979">
    <path fill="#ffffff" stroke="#000000" stroke-width="2" stroke-miterlimit="4" id="path3981" d="m243.451569,187.630875c0,-5.85791 7.236206,-10.606628 16.162476,-10.606628c8.92627,0 16.162415,4.748718 16.162415,10.606628c0,5.857849 -7.236145,10.606567 -16.162415,10.606567c-8.92627,0 -16.162476,-4.748718 -16.162476,-10.606567z"/>
    <path fill="#ffffff" stroke="#000000" stroke-width="2" stroke-miterlimit="4" id="path3983" d="m243.704056,190.661331c0,-5.85791 7.236206,-10.606628 16.162491,-10.606628c8.92627,0 16.162415,4.748718 16.162415,10.606628c0,5.857849 -7.236145,10.606567 -16.162415,10.606567c-8.926285,0 -16.162491,-4.748718 -16.162491,-10.606567z"/>
   </g>
   <g id="g4026">
    <path fill="#ffffff" stroke="#000000" stroke-width="2" stroke-miterlimit="4" id="path4028" d="m281.259766,183.34166c0,5.857864 -7.236206,10.606613 -16.162476,10.606613c-8.92627,0 -16.162399,-4.748749 -16.162399,-10.606613c0,-5.85788 7.23613,-10.606598 16.162399,-10.606598c8.92627,0 16.162476,4.748718 16.162476,10.606598z"/>
    <path fill="#ffffff" stroke="#000000" stroke-width="2" stroke-miterlimit="4" id="path4030" d="m281.007263,180.311218c0,5.857849 -7.236206,10.606598 -16.162476,10.606598c-8.926285,0 -16.16243,-4.748749 -16.16243,-10.606598c0,-5.85788 7.236145,-10.606598 16.16243,-10.606598c8.92627,0 16.162476,4.748718 16.162476,10.606598z"/>
   </g>
   <g id="g3526">
    <path fill="#ffffff" stroke="#000000" stroke-width="2" stroke-miterlimit="4" id="path3446" d="m370.844604,167.159225c-1.861847,5.554092 -10.232178,7.756622 -18.695557,4.919479c-8.463379,-2.837143 -13.814941,-9.639587 -11.953064,-15.193665c1.861877,-5.554108 10.232117,-7.756638 18.695496,-4.919495c8.463379,2.837143 13.815002,9.639572 11.953125,15.19368z"/>
    <path fill="#ffffff" stroke="#000000" stroke-width="2" stroke-miterlimit="4" id="path3448" d="m371.568451,164.205704c-1.861847,5.554092 -10.232178,7.756622 -18.695557,4.919479c-8.463409,-2.837143 -13.814941,-9.639587 -11.953094,-15.193665c1.861877,-5.554123 10.232147,-7.756638 18.695526,-4.919495c8.463379,2.837143 13.815002,9.639572 11.953125,15.19368z"/>
   </g>
   <g id="g3963">
    <path fill="#ffffff" stroke="#000000" stroke-width="2" stroke-miterlimit="4" id="path3965" d="m320.234924,162.237228c-1.861847,5.554092 -10.232178,7.756622 -18.695557,4.919479c-8.463379,-2.837143 -13.814941,-9.639587 -11.953064,-15.193665c1.861877,-5.554123 10.232117,-7.756638 18.695496,-4.919495c8.463379,2.837143 13.815002,9.639572 11.953125,15.19368z"/>
    <path fill="#ffffff" stroke="#000000" stroke-width="2" stroke-miterlimit="4" id="path3967" d="m320.958771,159.283707c-1.861847,5.554077 -10.232178,7.756607 -18.695557,4.919479c-8.463379,-2.837143 -13.814941,-9.639587 -11.953094,-15.19368c1.861877,-5.554108 10.232147,-7.756622 18.695526,-4.919479c8.463379,2.837128 13.815002,9.639572 11.953125,15.19368z"/>
   </g>
   <g id="g4123">
    <path fill="#ffffff" stroke="#000000" stroke-width="2" stroke-miterlimit="4" id="path4166" d="m337.217682,151.390915c5.399536,2.271408 6.970856,10.782837 3.509644,19.010727c-3.461212,8.22789 -10.644287,13.056549 -16.043823,10.785126c-5.399567,-2.271423 -6.970886,-10.782761 -3.509674,-19.010666c3.461212,-8.22789 10.644287,-13.05661 16.043854,-10.785187z"/>
    <path fill="#ffffff" stroke="#000000" stroke-width="2" stroke-miterlimit="4" id="path4168" d="m334.326416,149.741409c5.399536,2.271423 6.970856,10.782837 3.509644,19.010727c-3.461212,8.227905 -10.644287,13.056549 -16.043823,10.785141c-5.399567,-2.271423 -6.970886,-10.782776 -3.509674,-19.010681c3.461212,-8.22789 10.644257,-13.05661 16.043854,-10.785187z"/>
   </g>
   <g id="g4206">
    <path fill="#ffffff" stroke="#000000" stroke-width="2" stroke-miterlimit="4" id="path4208" d="m236.872894,148.327591c0,-5.85791 7.236206,-10.606628 16.162476,-10.606628c8.92627,0 16.162415,4.748718 16.162415,10.606628c0,5.857849 -7.236145,10.606567 -16.162415,10.606567c-8.92627,0 -16.162476,-4.748718 -16.162476,-10.606567z"/>
    <path fill="#ffffff" stroke="#000000" stroke-width="2" stroke-miterlimit="4" id="path4210" d="m237.125381,151.358047c0,-5.85791 7.236206,-10.606628 16.162476,-10.606628c8.926285,0 16.16243,4.748718 16.16243,10.606628c0,5.857849 -7.236145,10.606567 -16.16243,10.606567c-8.92627,0 -16.162476,-4.748718 -16.162476,-10.606567z"/>
   </g>
   <g id="g3973">
    <path fill="#ffffff" stroke="#000000" stroke-width="2" stroke-miterlimit="4" id="path3975" d="m228.566864,159.763565c0,-5.85791 7.236206,-10.606628 16.162476,-10.606628c8.92627,0 16.162415,4.748718 16.162415,10.606628c0,5.857819 -7.236145,10.606567 -16.162415,10.606567c-8.92627,0 -16.162476,-4.748749 -16.162476,-10.606567z"/>
    <path fill="#ffffff" stroke="#000000" stroke-width="2" stroke-miterlimit="4" id="path3977" d="m228.819351,162.794022c0,-5.85791 7.236206,-10.606628 16.162476,-10.606628c8.92627,0 16.16243,4.748718 16.16243,10.606628c0,5.857819 -7.23616,10.606567 -16.16243,10.606567c-8.92627,0 -16.162476,-4.748749 -16.162476,-10.606567z"/>
   </g>
   <g id="g4015">
    <path fill="#ffffff" stroke="#000000" stroke-width="2" stroke-miterlimit="4" id="path4017" d="m228.122253,146.176941c5.476563,-2.078842 12.484222,3.001144 15.651978,11.346405c3.16777,8.345276 1.296082,16.79567 -4.180496,18.874512c-5.476593,2.078842 -12.484207,-3.001083 -15.651962,-11.346344c-3.16777,-8.345276 -1.296127,-16.795715 4.180481,-18.874573z"/>
    <path fill="#ffffff" stroke="#000000" stroke-width="2" stroke-miterlimit="4" id="path4019" d="m225.378662,147.488449c5.476578,-2.078827 12.484222,3.001144 15.651978,11.34642c3.16777,8.345261 1.296082,16.795654 -4.180496,18.874496c-5.476593,2.078857 -12.484192,-3.001068 -15.651962,-11.346344c-3.167755,-8.345276 -1.296112,-16.795715 4.180481,-18.874573z"/>
   </g>
   <g id="g4021">
    <path fill="#ffffff" stroke="#000000" stroke-width="2" stroke-miterlimit="4" id="path4023" d="m233.174225,174.766266c-3.007004,-5.027161 0.765381,-12.817078 8.425827,-17.399185c7.660461,-4.582108 16.308151,-4.221252 19.31514,0.805908c3.007019,5.027161 -0.76535,12.816986 -8.425797,17.399094c-7.660461,4.582108 -16.308167,4.221344 -19.31517,-0.805817z"/>
    <path fill="#ffffff" stroke="#000000" stroke-width="2" stroke-miterlimit="4" id="path4025" d="m234.946533,177.23735c-3.007004,-5.027161 0.765381,-12.817078 8.425827,-17.399185c7.660461,-4.582108 16.308151,-4.221268 19.31514,0.805893c3.007019,5.027161 -0.76535,12.817001 -8.425797,17.399109c-7.660461,4.582108 -16.308167,4.221344 -19.31517,-0.805817z"/>
   </g>
   <g id="g4027">
    <path fill="#ffffff" stroke="#000000" stroke-width="2" stroke-miterlimit="4" id="path4029" d="m190.660675,155.654266c-3.007004,-5.027161 0.765381,-12.817078 8.425827,-17.399185c7.660461,-4.582108 16.308151,-4.221252 19.31514,0.805908c3.007004,5.027161 -0.76535,12.816986 -8.425797,17.399094c-7.660461,4.582108 -16.308167,4.221344 -19.31517,-0.805817z"/>
    <path fill="#ffffff" stroke="#000000" stroke-width="2" stroke-miterlimit="4" id="path4031" d="m192.432983,158.125351c-3.007004,-5.027161 0.765381,-12.817078 8.425827,-17.399185c7.660461,-4.582108 16.308151,-4.221268 19.31514,0.805893c3.007004,5.027161 -0.76535,12.817001 -8.425797,17.399109c-7.660461,4.582108 -16.308167,4.221344 -19.31517,-0.805817z"/>
   </g>
   <g id="g4033">
    <path fill="#ffffff" stroke="#000000" stroke-width="2" stroke-miterlimit="4" id="path4035" d="m284.246338,186.262283c-5.69101,1.388046 -12.019165,-4.516846 -14.134308,-13.188904c-2.115112,-8.672058 0.783752,-16.827362 6.474762,-18.215408c5.691071,-1.388046 12.019165,4.516785 14.134308,13.188843c2.115112,8.672058 -0.783691,16.827408 -6.474762,18.215469z"/>
    <path fill="#ffffff" stroke="#000000" stroke-width="2" stroke-miterlimit="4" id="path4037" d="m287.130646,185.298889c-5.69101,1.388046 -12.019165,-4.516846 -14.134308,-13.188889c-2.115112,-8.672058 0.783752,-16.827362 6.474762,-18.215408c5.691071,-1.388062 12.019196,4.516769 14.134308,13.188828c2.115112,8.672058 -0.783691,16.827423 -6.474762,18.215469z"/>
   </g>
   <g id="g4039">
    <path fill="#ffffff" stroke="#000000" stroke-width="2" stroke-miterlimit="4" id="path4041" d="m215.044327,186.427719c-5.69101,1.388046 -12.01918,-4.516846 -14.134308,-13.188889c-2.115112,-8.672058 0.783752,-16.827362 6.474777,-18.215408c5.69104,-1.388062 12.019165,4.516769 14.134293,13.188828c2.115112,8.672058 -0.783707,16.827408 -6.474762,18.215469z"/>
    <path fill="#ffffff" stroke="#000000" stroke-width="2" stroke-miterlimit="4" id="path4043" d="m217.92865,185.464325c-5.691025,1.388046 -12.019196,-4.51683 -14.134308,-13.188889c-2.115128,-8.672058 0.783737,-16.827362 6.474762,-18.215408c5.691055,-1.388046 12.019165,4.516785 14.134293,13.188843c2.115128,8.672043 -0.783707,16.827408 -6.474747,18.215454z"/>
   </g>
   <g id="g4045">
    <path fill="#ffffff" stroke="#000000" stroke-width="2" stroke-miterlimit="4" id="path4047" d="m223.482727,169.990173c5.691025,-1.388046 12.019196,4.516846 14.134308,13.188889c2.115128,8.672058 -0.783737,16.827362 -6.474762,18.215408c-5.691055,1.388062 -12.019165,-4.516769 -14.134293,-13.188828c-2.115128,-8.672058 0.783707,-16.827408 6.474747,-18.215469z"/>
    <path fill="#ffffff" stroke="#000000" stroke-width="2" stroke-miterlimit="4" id="path4049" d="m220.598419,170.953583c5.691025,-1.388046 12.019196,4.516846 14.134308,13.188904c2.115128,8.672058 -0.783737,16.827362 -6.474762,18.215408c-5.691055,1.388046 -12.019165,-4.516785 -14.134293,-13.188843c-2.115128,-8.672058 0.783707,-16.827408 6.474747,-18.215469z"/>
   </g>
   <g id="g4101">
    <path fill="#ffffff" fill-rule="evenodd" stroke="#000000" stroke-width="2" d="m288.879578,222.598511l28.065613,-11.630722l0.166931,22.513702c0,0 -1.366669,11.637939 -9.03006,15.511627c-7.663361,3.873703 -14.410217,-8.984177 -14.410217,-8.984177l-4.792267,-17.410431z" id="path4075"/>
    <g id="g4097">
     <path stroke-width="2" fill="#ffffff" stroke="#000000" d="m308.672028,233.034317c0.200043,2.60434 -1.161102,4.832535 -3.040131,4.976868c-1.879059,0.144333 -3.564545,-1.849854 -3.764587,-4.454178c-0.200043,-2.60434 1.161102,-4.832535 3.040161,-4.976868c1.879059,-0.144333 3.564514,1.849854 3.764557,4.454178z" id="path4093"/>
     <rect stroke-width="2" fill="#ffffff" stroke="#000000" transform="matrix(1.2224451246211478,-0.24693133949902457,0.24693133949902457,1.2224451246211478,-24.636575600637997,-200.93941897673) " y="393.919449" x="189.071914" height="6.982679" width="2.298097" id="rect4095"/>
    </g>
   </g>
   <g id="g3985">
    <path fill="#ffffff" stroke="#000000" stroke-width="2" stroke-miterlimit="4" id="path3987" d="m247.645035,199.26236c0,5.857849 -7.236206,10.606598 -16.162491,10.606598c-8.92627,0 -16.162415,-4.748749 -16.162415,-10.606598c0,-5.85788 7.236145,-10.606598 16.162415,-10.606598c8.926285,0 16.162491,4.748718 16.162491,10.606598z"/>
    <path fill="#ffffff" stroke="#000000" stroke-width="2" stroke-miterlimit="4" id="path3989" d="m247.392502,196.231903c0,5.857864 -7.236206,10.606598 -16.162491,10.606598c-8.92627,0 -16.162415,-4.748734 -16.162415,-10.606598c0,-5.857864 7.236145,-10.606598 16.162415,-10.606598c8.926285,0 16.162491,4.748734 16.162491,10.606598z"/>
   </g>
  </g>
 </g>
</svg>